<svg width="100%" height="100%" viewBox="0 0 81 48" version="1.1" xmlns="http://www.w3.org/2000/svg"
    xmlns:xlink="http://www.w3.org/1999/xlink" xml:space="preserve"
    xmlns:serif="http://www.serif.com/"
    style="fill-rule:evenodd;clip-rule:evenodd;stroke-linejoin:round;stroke-miterlimit:2;"><g><path d="M38.842,15.136c1.416,0 2.808,0.122 4.126,0.367l3.125,-3.223c-2.197,-0.757 -4.639,-1.172 -7.251,-1.172c-4.419,0 -8.447,1.221 -11.401,3.198l2.734,2.539c2.515,-1.074 5.493,-1.709 8.667,-1.709" style="fill:#005bac;fill-rule:nonzero;"/><path d="M38.842,11.108c2.612,0 5.054,0.415 7.251,1.172l3.418,-3.491c-3.174,-1.245 -6.812,-1.929 -10.669,-1.929c-5.737,0 -10.986,1.563 -14.99,4.126l3.564,3.345c2.979,-2.002 7.007,-3.223 11.426,-3.223" style="fill:#1a7fd9;fill-rule:nonzero;"/><path d="M22.485,24.78c0.293,-1.148 0.806,-2.246 1.538,-3.247l-1.367,-1.367c-0.269,0.83 -0.415,1.709 -0.415,2.612c-0,0.683 0.073,1.343 0.244,2.002" style="fill:#005bac;fill-rule:nonzero;"/><path d="M12.329,32.348l-0.586,2.93l5.737,-2.442c-0.366,-0.757 -0.439,-1.733 -0.635,-2.514l-4.516,2.026Z" style="fill:#005bac;fill-rule:nonzero;"/><path d="M8.301,0.342l-8.301,44.75l3.931,0.317l8.203,-45.409l-3.833,0.342Z" style="fill:#005bac;fill-rule:nonzero;"/><path d="M36.205,26.098l0,-3.613l-6.03,-5.615l-2.734,-2.539l-3.565,-3.369l-11.742,-10.962l-8.228,45.409l17.383,-7.519c-1.734,-1.514 -2.954,-3.125 -3.882,-5.005l-5.664,2.393l0.561,-2.93l3.662,-18.823l0.318,-1.587l3.027,3.003l3.906,3.857l1.685,1.661l6.884,5.834l-6.689,3.003c1.734,1.709 3.784,3.198 6.567,4.053l8.325,-3.686l-3.784,-3.565Z" style="fill:#1a7fd9;fill-rule:nonzero;"/><path d="M55.199,24.78c0.171,-0.659 0.244,-1.319 0.244,-2.002c0,-2.026 -0.757,-3.931 -2.05,-5.591l-1.978,2.026c1.929,1.563 3.271,3.467 3.784,5.567" style="fill:#005bac;fill-rule:nonzero;"/><path d="M58.91,43.944l-4.687,-4.443c-0.757,0.513 -1.563,0.977 -2.393,1.392l7.08,6.689l21.826,-22.387l-0.025,-3.638l-21.801,22.387Z" style="fill:#005bac;fill-rule:nonzero;"/><path d="M43.017,28.906l-3.858,-3.662l-2.954,-2.784l0,3.638l4.151,3.931l3.979,3.759c1.001,-0.244 1.978,-0.561 2.881,-0.927l-4.199,-3.955Z" style="fill:#005bac;fill-rule:nonzero;"/><path d="M58.202,8.642l-3.125,3.199l-3.418,3.515l-2.344,2.393l-4.418,4.541l1.855,1.757l4.712,-4.834l1.977,-2.026l3.589,-3.686l1.172,-1.197l11.987,11.328l1.855,-1.879l-13.842,-13.111Z" style="fill:#005bac;fill-rule:nonzero;"/><path d="M57.03,13.501l-3.613,3.686c1.294,1.66 2.026,3.565 2.026,5.591c0,0.683 -0.097,1.367 -0.244,2.002c-0.415,1.709 -1.367,3.271 -2.71,4.638c-1.391,1.392 -3.198,2.564 -5.298,3.443c-0.903,0.366 -1.879,0.683 -2.88,0.927c-1.709,0.415 -3.565,0.66 -5.469,0.66c-2.368,-0 -4.614,-0.342 -6.64,-0.977c-2.759,-0.854 -5.152,-2.222 -6.885,-3.931c-0.635,-0.61 -1.172,-1.293 -1.636,-2.001c-0.561,-0.879 -0.976,-1.807 -1.196,-2.759c-0.171,-0.659 -0.244,-1.319 -0.244,-2.002c-0,-0.903 0.146,-1.782 0.415,-2.612l-4.151,-4.126c-1.513,2.221 -2.368,4.712 -2.368,7.348c0,0.684 0.074,1.343 0.171,2.002c0.269,1.611 0.855,3.125 1.685,4.541c0.415,0.708 0.928,1.416 1.465,2.075c1.464,1.734 3.344,3.247 5.542,4.492c3.832,2.149 8.618,3.418 13.818,3.418c3.637,0 7.08,-0.635 10.131,-1.733c0.928,-0.342 1.807,-0.708 2.661,-1.148c1.978,-0.976 3.711,-2.172 5.176,-3.54c2.441,-2.294 4.077,-5.078 4.59,-8.105c0.097,-0.659 0.171,-1.318 0.171,-2.002c-0,-3.711 -1.685,-7.129 -4.517,-9.887" style="fill:#1a7fd9;fill-rule:nonzero;"/><path d="M42.992,28.93l4.175,3.931c2.1,-0.855 3.931,-2.027 5.298,-3.418l-5.713,-5.396l-1.855,-1.757l4.394,-4.517l2.344,-2.392l3.418,-3.516l3.1,-3.198l13.818,13.086l-1.855,1.904l-11.304,11.621c-1.196,1.611 -2.734,3.027 -4.565,4.272l4.663,4.419l21.826,-22.387l-22.729,-21.509l-8.521,8.74l-3.418,3.491l-3.125,3.223l-6.738,6.933l6.787,6.47Z" style="fill:#1a7fd9;fill-rule:nonzero;"/><path d="M23.779,27.661l0.122,0.195c0.342,0.513 0.781,1.001 1.221,1.489l6.811,-3.1l-15.625,-14.307l-0.415,2.222l12.256,11.938l-4.37,1.563Z" style="fill:#005bac;fill-rule:nonzero;"/><path d="M61.547,23.388c-0,0.684 -0.074,1.343 -0.171,2.002c-0.513,3.027 -2.149,5.811 -4.59,8.105c-1.465,1.368 -3.198,2.564 -5.176,3.54c-0.854,0.415 -1.733,0.806 -2.661,1.148c-3.051,1.098 -6.494,1.733 -10.131,1.733c-5.2,0 -9.986,-1.269 -13.818,-3.418c-2.198,-1.245 -4.078,-2.758 -5.542,-4.492c-0.562,-0.659 -1.05,-1.343 -1.465,-2.075c-0.855,-1.416 -1.441,-2.954 -1.685,-4.541c-0.097,-0.659 -0.171,-1.318 -0.171,-2.002c0,-0.22 0.025,-0.415 0.025,-0.635l-0,-0.048c-0.122,0.659 -0.025,4.003 -0.025,4.687c0,1.074 0.147,2.124 0.415,3.149c0.22,0.806 0.489,1.563 0.855,2.32c0.903,1.904 2.27,3.637 4.004,5.127c4.174,3.613 10.424,5.932 17.407,5.932c4.858,0 9.35,-1.123 13.036,-3.003c0.831,-0.439 1.636,-0.903 2.393,-1.391c1.831,-1.245 3.369,-2.686 4.565,-4.297c1.734,-2.344 2.71,-5.005 2.71,-7.837c0,-0.61 0.049,-3.442 0,-4.565c0,-0.147 0.025,0.366 0.025,0.561" style="fill:#005bac;fill-rule:nonzero;"/></g></svg>